<?xml version="1.0" encoding="utf-8" standalone="no"?>
<!DOCTYPE svg PUBLIC "-//W3C//DTD SVG 1.1//EN"
  "http://www.w3.org/Graphics/SVG/1.1/DTD/svg11.dtd">
<svg xmlns:xlink="http://www.w3.org/1999/xlink" width="1080pt" height="504pt" viewBox="0 0 1080 504" xmlns="http://www.w3.org/2000/svg" version="1.1">
 <metadata>
  <rdf:RDF xmlns:dc="http://purl.org/dc/elements/1.1/" xmlns:cc="http://creativecommons.org/ns#" xmlns:rdf="http://www.w3.org/1999/02/22-rdf-syntax-ns#">
   <cc:Work>
    <dc:type rdf:resource="http://purl.org/dc/dcmitype/StillImage"/>
    <dc:date>2023-11-06T12:06:09.816422</dc:date>
    <dc:format>image/svg+xml</dc:format>
    <dc:creator>
     <cc:Agent>
      <dc:title>Matplotlib v3.7.1, https://matplotlib.org/</dc:title>
     </cc:Agent>
    </dc:creator>
   </cc:Work>
  </rdf:RDF>
 </metadata>
 <defs>
  <style type="text/css">*{stroke-linejoin: round; stroke-linecap: butt}</style>
 </defs>
 <g id="figure_1">
  <g id="patch_1">
   <path d="M 0 504 
L 1080 504 
L 1080 0 
L 0 0 
z
" style="fill: #ffffff"/>
  </g>
  <g id="axes_1">
   <g id="patch_2">
    <path d="M 52.571168 461.38 
L 1061.945752 461.38 
L 1061.945752 37.68 
L 52.571168 37.68 
z
" style="fill: #ffffff"/>
   </g>
   <g id="matplotlib.axis_1">
    <g id="xtick_1">
     <g id="text_1">
      <!-- 0 -->
      <g style="fill: #262626" transform="translate(86.313936 485.72244) scale(0.20736 -0.20736)">
       <defs>
        <path id="ArialMT-30" d="M 266 2259 
Q 266 3072 433 3567 
Q 600 4063 929 4331 
Q 1259 4600 1759 4600 
Q 2128 4600 2406 4451 
Q 2684 4303 2865 4023 
Q 3047 3744 3150 3342 
Q 3253 2941 3253 2259 
Q 3253 1453 3087 958 
Q 2922 463 2592 192 
Q 2263 -78 1759 -78 
Q 1097 -78 719 397 
Q 266 969 266 2259 
z
M 844 2259 
Q 844 1131 1108 757 
Q 1372 384 1759 384 
Q 2147 384 2411 759 
Q 2675 1134 2675 2259 
Q 2675 3391 2411 3762 
Q 2147 4134 1753 4134 
Q 1366 4134 1134 3806 
Q 844 3388 844 2259 
z
" transform="scale(0.015625)"/>
       </defs>
       <use xlink:href="#ArialMT-30"/>
      </g>
     </g>
    </g>
    <g id="xtick_2">
     <g id="text_2">
      <!-- 50 -->
      <g style="fill: #262626" transform="translate(239.856214 485.72244) scale(0.20736 -0.20736)">
       <defs>
        <path id="ArialMT-35" d="M 266 1200 
L 856 1250 
Q 922 819 1161 601 
Q 1400 384 1738 384 
Q 2144 384 2425 690 
Q 2706 997 2706 1503 
Q 2706 1984 2436 2262 
Q 2166 2541 1728 2541 
Q 1456 2541 1237 2417 
Q 1019 2294 894 2097 
L 366 2166 
L 809 4519 
L 3088 4519 
L 3088 3981 
L 1259 3981 
L 1013 2750 
Q 1425 3038 1878 3038 
Q 2478 3038 2890 2622 
Q 3303 2206 3303 1553 
Q 3303 931 2941 478 
Q 2500 -78 1738 -78 
Q 1113 -78 717 272 
Q 322 622 266 1200 
z
" transform="scale(0.015625)"/>
       </defs>
       <use xlink:href="#ArialMT-35"/>
       <use xlink:href="#ArialMT-30" x="55.615234"/>
      </g>
     </g>
    </g>
    <g id="xtick_3">
     <g id="text_3">
      <!-- 100 -->
      <g style="fill: #262626" transform="translate(393.398491 485.72244) scale(0.20736 -0.20736)">
       <defs>
        <path id="ArialMT-31" d="M 2384 0 
L 1822 0 
L 1822 3584 
Q 1619 3391 1289 3197 
Q 959 3003 697 2906 
L 697 3450 
Q 1169 3672 1522 3987 
Q 1875 4303 2022 4600 
L 2384 4600 
L 2384 0 
z
" transform="scale(0.015625)"/>
       </defs>
       <use xlink:href="#ArialMT-31"/>
       <use xlink:href="#ArialMT-30" x="55.615234"/>
       <use xlink:href="#ArialMT-30" x="111.230469"/>
      </g>
     </g>
    </g>
    <g id="xtick_4">
     <g id="text_4">
      <!-- 150 -->
      <g style="fill: #262626" transform="translate(552.706349 485.72244) scale(0.20736 -0.20736)">
       <use xlink:href="#ArialMT-31"/>
       <use xlink:href="#ArialMT-35" x="55.615234"/>
       <use xlink:href="#ArialMT-30" x="111.230469"/>
      </g>
     </g>
    </g>
    <g id="xtick_5">
     <g id="text_5">
      <!-- 200 -->
      <g style="fill: #262626" transform="translate(712.014206 485.72244) scale(0.20736 -0.20736)">
       <defs>
        <path id="ArialMT-32" d="M 3222 541 
L 3222 0 
L 194 0 
Q 188 203 259 391 
Q 375 700 629 1000 
Q 884 1300 1366 1694 
Q 2113 2306 2375 2664 
Q 2638 3022 2638 3341 
Q 2638 3675 2398 3904 
Q 2159 4134 1775 4134 
Q 1369 4134 1125 3890 
Q 881 3647 878 3216 
L 300 3275 
Q 359 3922 746 4261 
Q 1134 4600 1788 4600 
Q 2447 4600 2831 4234 
Q 3216 3869 3216 3328 
Q 3216 3053 3103 2787 
Q 2991 2522 2730 2228 
Q 2469 1934 1863 1422 
Q 1356 997 1212 845 
Q 1069 694 975 541 
L 3222 541 
z
" transform="scale(0.015625)"/>
       </defs>
       <use xlink:href="#ArialMT-32"/>
       <use xlink:href="#ArialMT-30" x="55.615234"/>
       <use xlink:href="#ArialMT-30" x="111.230469"/>
      </g>
     </g>
    </g>
    <g id="xtick_6">
     <g id="text_6">
      <!-- 250 -->
      <g style="fill: #262626" transform="translate(871.322063 485.72244) scale(0.20736 -0.20736)">
       <use xlink:href="#ArialMT-32"/>
       <use xlink:href="#ArialMT-35" x="55.615234"/>
       <use xlink:href="#ArialMT-30" x="111.230469"/>
      </g>
     </g>
    </g>
    <g id="xtick_7">
     <g id="text_7">
      <!-- 300 -->
      <g style="fill: #262626" transform="translate(1030.629921 485.72244) scale(0.20736 -0.20736)">
       <defs>
        <path id="ArialMT-33" d="M 269 1209 
L 831 1284 
Q 928 806 1161 595 
Q 1394 384 1728 384 
Q 2125 384 2398 659 
Q 2672 934 2672 1341 
Q 2672 1728 2419 1979 
Q 2166 2231 1775 2231 
Q 1616 2231 1378 2169 
L 1441 2663 
Q 1497 2656 1531 2656 
Q 1891 2656 2178 2843 
Q 2466 3031 2466 3422 
Q 2466 3731 2256 3934 
Q 2047 4138 1716 4138 
Q 1388 4138 1169 3931 
Q 950 3725 888 3313 
L 325 3413 
Q 428 3978 793 4289 
Q 1159 4600 1703 4600 
Q 2078 4600 2393 4439 
Q 2709 4278 2876 4000 
Q 3044 3722 3044 3409 
Q 3044 3113 2884 2869 
Q 2725 2625 2413 2481 
Q 2819 2388 3044 2092 
Q 3269 1797 3269 1353 
Q 3269 753 2831 336 
Q 2394 -81 1725 -81 
Q 1122 -81 723 278 
Q 325 638 269 1209 
z
" transform="scale(0.015625)"/>
       </defs>
       <use xlink:href="#ArialMT-33"/>
       <use xlink:href="#ArialMT-30" x="55.615234"/>
       <use xlink:href="#ArialMT-30" x="111.230469"/>
      </g>
     </g>
    </g>
   </g>
   <g id="matplotlib.axis_2">
    <g id="ytick_1">
     <g id="text_8">
      <!-- 0 -->
      <g style="fill: #262626" transform="translate(31.02425 472.57829) rotate(-30) scale(0.20736 -0.20736)">
       <use xlink:href="#ArialMT-30"/>
      </g>
     </g>
    </g>
    <g id="ytick_2">
     <g id="text_9">
      <!-- 2 -->
      <g style="fill: #262626" transform="translate(31.02425 421.220714) rotate(-30) scale(0.20736 -0.20736)">
       <use xlink:href="#ArialMT-32"/>
      </g>
     </g>
    </g>
    <g id="ytick_3">
     <g id="text_10">
      <!-- 4 -->
      <g style="fill: #262626" transform="translate(31.02425 369.863139) rotate(-30) scale(0.20736 -0.20736)">
       <defs>
        <path id="ArialMT-34" d="M 2069 0 
L 2069 1097 
L 81 1097 
L 81 1613 
L 2172 4581 
L 2631 4581 
L 2631 1613 
L 3250 1613 
L 3250 1097 
L 2631 1097 
L 2631 0 
L 2069 0 
z
M 2069 1613 
L 2069 3678 
L 634 1613 
L 2069 1613 
z
" transform="scale(0.015625)"/>
       </defs>
       <use xlink:href="#ArialMT-34"/>
      </g>
     </g>
    </g>
    <g id="ytick_4">
     <g id="text_11">
      <!-- 6 -->
      <g style="fill: #262626" transform="translate(31.02425 318.505563) rotate(-30) scale(0.20736 -0.20736)">
       <defs>
        <path id="ArialMT-36" d="M 3184 3459 
L 2625 3416 
Q 2550 3747 2413 3897 
Q 2184 4138 1850 4138 
Q 1581 4138 1378 3988 
Q 1113 3794 959 3422 
Q 806 3050 800 2363 
Q 1003 2672 1297 2822 
Q 1591 2972 1913 2972 
Q 2475 2972 2870 2558 
Q 3266 2144 3266 1488 
Q 3266 1056 3080 686 
Q 2894 316 2569 119 
Q 2244 -78 1831 -78 
Q 1128 -78 684 439 
Q 241 956 241 2144 
Q 241 3472 731 4075 
Q 1159 4600 1884 4600 
Q 2425 4600 2770 4297 
Q 3116 3994 3184 3459 
z
M 888 1484 
Q 888 1194 1011 928 
Q 1134 663 1356 523 
Q 1578 384 1822 384 
Q 2178 384 2434 671 
Q 2691 959 2691 1453 
Q 2691 1928 2437 2201 
Q 2184 2475 1800 2475 
Q 1419 2475 1153 2201 
Q 888 1928 888 1484 
z
" transform="scale(0.015625)"/>
       </defs>
       <use xlink:href="#ArialMT-36"/>
      </g>
     </g>
    </g>
    <g id="ytick_5">
     <g id="text_12">
      <!-- 8 -->
      <g style="fill: #262626" transform="translate(31.02425 267.147987) rotate(-30) scale(0.20736 -0.20736)">
       <defs>
        <path id="ArialMT-38" d="M 1131 2484 
Q 781 2613 612 2850 
Q 444 3088 444 3419 
Q 444 3919 803 4259 
Q 1163 4600 1759 4600 
Q 2359 4600 2725 4251 
Q 3091 3903 3091 3403 
Q 3091 3084 2923 2848 
Q 2756 2613 2416 2484 
Q 2838 2347 3058 2040 
Q 3278 1734 3278 1309 
Q 3278 722 2862 322 
Q 2447 -78 1769 -78 
Q 1091 -78 675 323 
Q 259 725 259 1325 
Q 259 1772 486 2073 
Q 713 2375 1131 2484 
z
M 1019 3438 
Q 1019 3113 1228 2906 
Q 1438 2700 1772 2700 
Q 2097 2700 2305 2904 
Q 2513 3109 2513 3406 
Q 2513 3716 2298 3927 
Q 2084 4138 1766 4138 
Q 1444 4138 1231 3931 
Q 1019 3725 1019 3438 
z
M 838 1322 
Q 838 1081 952 856 
Q 1066 631 1291 507 
Q 1516 384 1775 384 
Q 2178 384 2440 643 
Q 2703 903 2703 1303 
Q 2703 1709 2433 1975 
Q 2163 2241 1756 2241 
Q 1359 2241 1098 1978 
Q 838 1716 838 1322 
z
" transform="scale(0.015625)"/>
       </defs>
       <use xlink:href="#ArialMT-38"/>
      </g>
     </g>
    </g>
    <g id="ytick_6">
     <g id="text_13">
      <!-- 10 -->
      <g style="fill: #262626" transform="translate(21.037973 221.555991) rotate(-30) scale(0.20736 -0.20736)">
       <use xlink:href="#ArialMT-31"/>
       <use xlink:href="#ArialMT-30" x="55.615234"/>
      </g>
     </g>
    </g>
    <g id="ytick_7">
     <g id="text_14">
      <!-- 12 -->
      <g style="fill: #262626" transform="translate(21.037973 170.198416) rotate(-30) scale(0.20736 -0.20736)">
       <use xlink:href="#ArialMT-31"/>
       <use xlink:href="#ArialMT-32" x="55.615234"/>
      </g>
     </g>
    </g>
    <g id="ytick_8">
     <g id="text_15">
      <!-- 14 -->
      <g style="fill: #262626" transform="translate(21.037973 118.84084) rotate(-30) scale(0.20736 -0.20736)">
       <use xlink:href="#ArialMT-31"/>
       <use xlink:href="#ArialMT-34" x="55.615234"/>
      </g>
     </g>
    </g>
    <g id="ytick_9">
     <g id="text_16">
      <!-- 16 -->
      <g style="fill: #262626" transform="translate(21.037973 67.483264) rotate(-30) scale(0.20736 -0.20736)">
       <use xlink:href="#ArialMT-31"/>
       <use xlink:href="#ArialMT-36" x="55.615234"/>
      </g>
     </g>
    </g>
   </g>
   <g id="patch_3">
    <path d="M 98.451831 461.38 
L 121.392162 461.38 
L 121.392162 204.592121 
L 98.451831 204.592121 
z
" clip-path="url(#p88c9cac7ff)" style="fill: #2e1e3b; fill-opacity: 0.5; stroke: #ffffff; stroke-width: 0.685318; stroke-linejoin: miter"/>
   </g>
   <g id="patch_4">
    <path d="M 121.392162 461.38 
L 144.332493 461.38 
L 144.332493 255.949697 
L 121.392162 255.949697 
z
" clip-path="url(#p88c9cac7ff)" style="fill: #2e1e3b; fill-opacity: 0.5; stroke: #ffffff; stroke-width: 0.685318; stroke-linejoin: miter"/>
   </g>
   <g id="patch_5">
    <path d="M 144.332493 461.38 
L 167.272825 461.38 
L 167.272825 76.198182 
L 144.332493 76.198182 
z
" clip-path="url(#p88c9cac7ff)" style="fill: #2e1e3b; fill-opacity: 0.5; stroke: #ffffff; stroke-width: 0.685318; stroke-linejoin: miter"/>
   </g>
   <g id="patch_6">
    <path d="M 167.272825 461.38 
L 190.213156 461.38 
L 190.213156 101.87697 
L 167.272825 101.87697 
z
" clip-path="url(#p88c9cac7ff)" style="fill: #2e1e3b; fill-opacity: 0.5; stroke: #ffffff; stroke-width: 0.685318; stroke-linejoin: miter"/>
   </g>
   <g id="patch_7">
    <path d="M 190.213156 461.38 
L 213.153488 461.38 
L 213.153488 281.628485 
L 190.213156 281.628485 
z
" clip-path="url(#p88c9cac7ff)" style="fill: #2e1e3b; fill-opacity: 0.5; stroke: #ffffff; stroke-width: 0.685318; stroke-linejoin: miter"/>
   </g>
   <g id="patch_8">
    <path d="M 213.153488 461.38 
L 236.093819 461.38 
L 236.093819 255.949697 
L 213.153488 255.949697 
z
" clip-path="url(#p88c9cac7ff)" style="fill: #2e1e3b; fill-opacity: 0.5; stroke: #ffffff; stroke-width: 0.685318; stroke-linejoin: miter"/>
   </g>
   <g id="patch_9">
    <path d="M 236.093819 461.38 
L 259.034151 461.38 
L 259.034151 410.022424 
L 236.093819 410.022424 
z
" clip-path="url(#p88c9cac7ff)" style="fill: #2e1e3b; fill-opacity: 0.5; stroke: #ffffff; stroke-width: 0.685318; stroke-linejoin: miter"/>
   </g>
   <g id="patch_10">
    <path d="M 259.034151 461.38 
L 281.974482 461.38 
L 281.974482 281.628485 
L 259.034151 281.628485 
z
" clip-path="url(#p88c9cac7ff)" style="fill: #2e1e3b; fill-opacity: 0.5; stroke: #ffffff; stroke-width: 0.685318; stroke-linejoin: miter"/>
   </g>
   <g id="patch_11">
    <path d="M 281.974482 461.38 
L 304.914814 461.38 
L 304.914814 230.270909 
L 281.974482 230.270909 
z
" clip-path="url(#p88c9cac7ff)" style="fill: #2e1e3b; fill-opacity: 0.5; stroke: #ffffff; stroke-width: 0.685318; stroke-linejoin: miter"/>
   </g>
   <g id="patch_12">
    <path d="M 304.914814 461.38 
L 327.855145 461.38 
L 327.855145 332.986061 
L 304.914814 332.986061 
z
" clip-path="url(#p88c9cac7ff)" style="fill: #2e1e3b; fill-opacity: 0.5; stroke: #ffffff; stroke-width: 0.685318; stroke-linejoin: miter"/>
   </g>
   <g id="patch_13">
    <path d="M 327.855145 461.38 
L 350.795477 461.38 
L 350.795477 410.022424 
L 327.855145 410.022424 
z
" clip-path="url(#p88c9cac7ff)" style="fill: #2e1e3b; fill-opacity: 0.5; stroke: #ffffff; stroke-width: 0.685318; stroke-linejoin: miter"/>
   </g>
   <g id="patch_14">
    <path d="M 350.795477 461.38 
L 373.735808 461.38 
L 373.735808 461.38 
L 350.795477 461.38 
z
" clip-path="url(#p88c9cac7ff)" style="fill: #2e1e3b; fill-opacity: 0.5; stroke: #ffffff; stroke-width: 0.685318; stroke-linejoin: miter"/>
   </g>
   <g id="patch_15">
    <path d="M 373.735808 461.38 
L 396.67614 461.38 
L 396.67614 384.343636 
L 373.735808 384.343636 
z
" clip-path="url(#p88c9cac7ff)" style="fill: #2e1e3b; fill-opacity: 0.5; stroke: #ffffff; stroke-width: 0.685318; stroke-linejoin: miter"/>
   </g>
   <g id="patch_16">
    <path d="M 396.67614 461.38 
L 419.616471 461.38 
L 419.616471 384.343636 
L 396.67614 384.343636 
z
" clip-path="url(#p88c9cac7ff)" style="fill: #2e1e3b; fill-opacity: 0.5; stroke: #ffffff; stroke-width: 0.685318; stroke-linejoin: miter"/>
   </g>
   <g id="patch_17">
    <path d="M 419.616471 461.38 
L 442.556803 461.38 
L 442.556803 435.701212 
L 419.616471 435.701212 
z
" clip-path="url(#p88c9cac7ff)" style="fill: #2e1e3b; fill-opacity: 0.5; stroke: #ffffff; stroke-width: 0.685318; stroke-linejoin: miter"/>
   </g>
   <g id="patch_18">
    <path d="M 442.556803 461.38 
L 465.497134 461.38 
L 465.497134 435.701212 
L 442.556803 435.701212 
z
" clip-path="url(#p88c9cac7ff)" style="fill: #2e1e3b; fill-opacity: 0.5; stroke: #ffffff; stroke-width: 0.685318; stroke-linejoin: miter"/>
   </g>
   <g id="patch_19">
    <path d="M 465.497134 461.38 
L 488.437466 461.38 
L 488.437466 410.022424 
L 465.497134 410.022424 
z
" clip-path="url(#p88c9cac7ff)" style="fill: #2e1e3b; fill-opacity: 0.5; stroke: #ffffff; stroke-width: 0.685318; stroke-linejoin: miter"/>
   </g>
   <g id="patch_20">
    <path d="M 488.437466 461.38 
L 511.377797 461.38 
L 511.377797 435.701212 
L 488.437466 435.701212 
z
" clip-path="url(#p88c9cac7ff)" style="fill: #2e1e3b; fill-opacity: 0.5; stroke: #ffffff; stroke-width: 0.685318; stroke-linejoin: miter"/>
   </g>
   <g id="patch_21">
    <path d="M 511.377797 461.38 
L 534.318128 461.38 
L 534.318128 435.701212 
L 511.377797 435.701212 
z
" clip-path="url(#p88c9cac7ff)" style="fill: #2e1e3b; fill-opacity: 0.5; stroke: #ffffff; stroke-width: 0.685318; stroke-linejoin: miter"/>
   </g>
   <g id="patch_22">
    <path d="M 534.318128 461.38 
L 557.25846 461.38 
L 557.25846 461.38 
L 534.318128 461.38 
z
" clip-path="url(#p88c9cac7ff)" style="fill: #2e1e3b; fill-opacity: 0.5; stroke: #ffffff; stroke-width: 0.685318; stroke-linejoin: miter"/>
   </g>
   <g id="patch_23">
    <path d="M 557.25846 461.38 
L 580.198791 461.38 
L 580.198791 461.38 
L 557.25846 461.38 
z
" clip-path="url(#p88c9cac7ff)" style="fill: #2e1e3b; fill-opacity: 0.5; stroke: #ffffff; stroke-width: 0.685318; stroke-linejoin: miter"/>
   </g>
   <g id="patch_24">
    <path d="M 580.198791 461.38 
L 603.139123 461.38 
L 603.139123 461.38 
L 580.198791 461.38 
z
" clip-path="url(#p88c9cac7ff)" style="fill: #2e1e3b; fill-opacity: 0.5; stroke: #ffffff; stroke-width: 0.685318; stroke-linejoin: miter"/>
   </g>
   <g id="patch_25">
    <path d="M 603.139123 461.38 
L 626.079454 461.38 
L 626.079454 461.38 
L 603.139123 461.38 
z
" clip-path="url(#p88c9cac7ff)" style="fill: #2e1e3b; fill-opacity: 0.5; stroke: #ffffff; stroke-width: 0.685318; stroke-linejoin: miter"/>
   </g>
   <g id="patch_26">
    <path d="M 626.079454 461.38 
L 649.019786 461.38 
L 649.019786 461.38 
L 626.079454 461.38 
z
" clip-path="url(#p88c9cac7ff)" style="fill: #2e1e3b; fill-opacity: 0.5; stroke: #ffffff; stroke-width: 0.685318; stroke-linejoin: miter"/>
   </g>
   <g id="patch_27">
    <path d="M 649.019786 461.38 
L 671.960117 461.38 
L 671.960117 435.701212 
L 649.019786 435.701212 
z
" clip-path="url(#p88c9cac7ff)" style="fill: #2e1e3b; fill-opacity: 0.5; stroke: #ffffff; stroke-width: 0.685318; stroke-linejoin: miter"/>
   </g>
   <g id="patch_28">
    <path d="M 671.960117 461.38 
L 694.900449 461.38 
L 694.900449 461.38 
L 671.960117 461.38 
z
" clip-path="url(#p88c9cac7ff)" style="fill: #2e1e3b; fill-opacity: 0.5; stroke: #ffffff; stroke-width: 0.685318; stroke-linejoin: miter"/>
   </g>
   <g id="patch_29">
    <path d="M 694.900449 461.38 
L 717.84078 461.38 
L 717.84078 461.38 
L 694.900449 461.38 
z
" clip-path="url(#p88c9cac7ff)" style="fill: #2e1e3b; fill-opacity: 0.5; stroke: #ffffff; stroke-width: 0.685318; stroke-linejoin: miter"/>
   </g>
   <g id="patch_30">
    <path d="M 717.84078 461.38 
L 740.781112 461.38 
L 740.781112 461.38 
L 717.84078 461.38 
z
" clip-path="url(#p88c9cac7ff)" style="fill: #2e1e3b; fill-opacity: 0.5; stroke: #ffffff; stroke-width: 0.685318; stroke-linejoin: miter"/>
   </g>
   <g id="patch_31">
    <path d="M 740.781112 461.38 
L 763.721443 461.38 
L 763.721443 435.701212 
L 740.781112 435.701212 
z
" clip-path="url(#p88c9cac7ff)" style="fill: #2e1e3b; fill-opacity: 0.5; stroke: #ffffff; stroke-width: 0.685318; stroke-linejoin: miter"/>
   </g>
   <g id="patch_32">
    <path d="M 763.721443 461.38 
L 786.661775 461.38 
L 786.661775 461.38 
L 763.721443 461.38 
z
" clip-path="url(#p88c9cac7ff)" style="fill: #2e1e3b; fill-opacity: 0.5; stroke: #ffffff; stroke-width: 0.685318; stroke-linejoin: miter"/>
   </g>
   <g id="patch_33">
    <path d="M 786.661775 461.38 
L 809.602106 461.38 
L 809.602106 461.38 
L 786.661775 461.38 
z
" clip-path="url(#p88c9cac7ff)" style="fill: #2e1e3b; fill-opacity: 0.5; stroke: #ffffff; stroke-width: 0.685318; stroke-linejoin: miter"/>
   </g>
   <g id="patch_34">
    <path d="M 809.602106 461.38 
L 832.542438 461.38 
L 832.542438 461.38 
L 809.602106 461.38 
z
" clip-path="url(#p88c9cac7ff)" style="fill: #2e1e3b; fill-opacity: 0.5; stroke: #ffffff; stroke-width: 0.685318; stroke-linejoin: miter"/>
   </g>
   <g id="patch_35">
    <path d="M 832.542438 461.38 
L 855.482769 461.38 
L 855.482769 461.38 
L 832.542438 461.38 
z
" clip-path="url(#p88c9cac7ff)" style="fill: #2e1e3b; fill-opacity: 0.5; stroke: #ffffff; stroke-width: 0.685318; stroke-linejoin: miter"/>
   </g>
   <g id="patch_36">
    <path d="M 855.482769 461.38 
L 878.423101 461.38 
L 878.423101 461.38 
L 855.482769 461.38 
z
" clip-path="url(#p88c9cac7ff)" style="fill: #2e1e3b; fill-opacity: 0.5; stroke: #ffffff; stroke-width: 0.685318; stroke-linejoin: miter"/>
   </g>
   <g id="patch_37">
    <path d="M 878.423101 461.38 
L 901.363432 461.38 
L 901.363432 461.38 
L 878.423101 461.38 
z
" clip-path="url(#p88c9cac7ff)" style="fill: #2e1e3b; fill-opacity: 0.5; stroke: #ffffff; stroke-width: 0.685318; stroke-linejoin: miter"/>
   </g>
   <g id="patch_38">
    <path d="M 901.363432 461.38 
L 924.303763 461.38 
L 924.303763 461.38 
L 901.363432 461.38 
z
" clip-path="url(#p88c9cac7ff)" style="fill: #2e1e3b; fill-opacity: 0.5; stroke: #ffffff; stroke-width: 0.685318; stroke-linejoin: miter"/>
   </g>
   <g id="patch_39">
    <path d="M 924.303763 461.38 
L 947.244095 461.38 
L 947.244095 461.38 
L 924.303763 461.38 
z
" clip-path="url(#p88c9cac7ff)" style="fill: #2e1e3b; fill-opacity: 0.5; stroke: #ffffff; stroke-width: 0.685318; stroke-linejoin: miter"/>
   </g>
   <g id="patch_40">
    <path d="M 947.244095 461.38 
L 970.184426 461.38 
L 970.184426 435.701212 
L 947.244095 435.701212 
z
" clip-path="url(#p88c9cac7ff)" style="fill: #2e1e3b; fill-opacity: 0.5; stroke: #ffffff; stroke-width: 0.685318; stroke-linejoin: miter"/>
   </g>
   <g id="patch_41">
    <path d="M 970.184426 461.38 
L 993.124758 461.38 
L 993.124758 461.38 
L 970.184426 461.38 
z
" clip-path="url(#p88c9cac7ff)" style="fill: #2e1e3b; fill-opacity: 0.5; stroke: #ffffff; stroke-width: 0.685318; stroke-linejoin: miter"/>
   </g>
   <g id="patch_42">
    <path d="M 993.124758 461.38 
L 1016.065089 461.38 
L 1016.065089 435.701212 
L 993.124758 435.701212 
z
" clip-path="url(#p88c9cac7ff)" style="fill: #2e1e3b; fill-opacity: 0.5; stroke: #ffffff; stroke-width: 0.685318; stroke-linejoin: miter"/>
   </g>
   <g id="line2d_1">
    <path d="M 98.451831 326.613336 
L 107.674074 310.754274 
L 112.285196 303.055548 
L 116.896318 295.593173 
L 121.50744 288.427713 
L 126.118562 281.617426 
L 130.729684 275.217221 
L 135.340806 269.277663 
L 139.951928 263.844051 
L 144.56305 258.955589 
L 149.174171 254.644686 
L 153.785293 250.936399 
L 158.396415 247.848036 
L 163.007537 245.388936 
L 167.618659 243.560432 
L 172.229781 242.356008 
L 176.840903 241.761624 
L 181.452025 241.756232 
L 186.063147 242.31244 
L 190.674269 243.397323 
L 195.285391 244.973343 
L 199.896512 246.999361 
L 204.507634 249.431693 
L 209.118756 252.225197 
L 213.729878 255.334337 
L 218.341 258.714203 
L 222.952122 262.321452 
L 227.563244 266.115139 
L 236.785488 274.114078 
L 246.007731 282.454184 
L 292.11895 324.692569 
L 310.563438 341.132433 
L 324.396804 353.15088 
L 333.619048 360.912105 
L 342.841291 368.382529 
L 352.063535 375.480047 
L 361.285779 382.130432 
L 370.508023 388.277358 
L 375.119145 391.151126 
L 379.730267 393.889424 
L 384.341389 396.492718 
L 388.95251 398.963185 
L 398.174754 403.522134 
L 407.396998 407.612247 
L 416.619242 411.295278 
L 425.841486 414.64112 
L 435.06373 417.720481 
L 444.285973 420.598809 
L 458.119339 424.658304 
L 476.563827 429.78573 
L 499.619436 435.917138 
L 518.063924 440.56279 
L 531.897289 443.804673 
L 545.730655 446.749918 
L 554.952899 448.508621 
L 564.175143 450.079276 
L 573.397387 451.446612 
L 582.61963 452.601949 
L 591.841874 453.544213 
L 601.064118 454.280284 
L 610.286362 454.824623 
L 619.508606 455.198204 
L 633.341971 455.495875 
L 647.175337 455.565932 
L 674.842068 455.403149 
L 702.5088 455.320737 
L 720.953288 455.482195 
L 739.397775 455.862401 
L 757.842263 456.449383 
L 790.120116 457.769801 
L 813.175726 458.648557 
L 831.620213 459.112651 
L 845.453579 459.250947 
L 859.286945 459.182111 
L 873.12031 458.904525 
L 886.953676 458.439 
L 905.398164 457.600913 
L 946.898261 455.563425 
L 960.731627 455.090079 
L 974.564992 454.81617 
L 988.398358 454.77199 
L 1002.231724 454.963826 
L 1016.065089 455.37381 
L 1016.065089 455.37381 
" clip-path="url(#p88c9cac7ff)" style="fill: none; stroke: #2e1e3b; stroke-width: 1.5; stroke-linecap: round"/>
   </g>
   <g id="LineCollection_1">
    <path d="M 1016.065089 461.38 
L 1016.065089 450.7875 
" clip-path="url(#p88c9cac7ff)" style="fill: none; stroke: #2e1e3b"/>
    <path d="M 528.583046 461.38 
L 528.583046 450.7875 
" clip-path="url(#p88c9cac7ff)" style="fill: none; stroke: #2e1e3b"/>
    <path d="M 445.74296 461.38 
L 445.74296 450.7875 
" clip-path="url(#p88c9cac7ff)" style="fill: none; stroke: #2e1e3b"/>
    <path d="M 429.812174 461.38 
L 429.812174 450.7875 
" clip-path="url(#p88c9cac7ff)" style="fill: none; stroke: #2e1e3b"/>
    <path d="M 417.067545 461.38 
L 417.067545 450.7875 
" clip-path="url(#p88c9cac7ff)" style="fill: none; stroke: #2e1e3b"/>
    <path d="M 410.695231 461.38 
L 410.695231 450.7875 
" clip-path="url(#p88c9cac7ff)" style="fill: none; stroke: #2e1e3b"/>
    <path d="M 401.13676 461.38 
L 401.13676 450.7875 
" clip-path="url(#p88c9cac7ff)" style="fill: none; stroke: #2e1e3b"/>
    <path d="M 388.392131 461.38 
L 388.392131 450.7875 
" clip-path="url(#p88c9cac7ff)" style="fill: none; stroke: #2e1e3b"/>
    <path d="M 385.205974 461.38 
L 385.205974 450.7875 
" clip-path="url(#p88c9cac7ff)" style="fill: none; stroke: #2e1e3b"/>
    <path d="M 334.22746 461.38 
L 334.22746 450.7875 
" clip-path="url(#p88c9cac7ff)" style="fill: none; stroke: #2e1e3b"/>
    <path d="M 327.855145 461.38 
L 327.855145 450.7875 
" clip-path="url(#p88c9cac7ff)" style="fill: none; stroke: #2e1e3b"/>
    <path d="M 318.296674 461.38 
L 318.296674 450.7875 
" clip-path="url(#p88c9cac7ff)" style="fill: none; stroke: #2e1e3b"/>
    <path d="M 315.110517 461.38 
L 315.110517 450.7875 
" clip-path="url(#p88c9cac7ff)" style="fill: none; stroke: #2e1e3b"/>
    <path d="M 315.110517 461.38 
L 315.110517 450.7875 
" clip-path="url(#p88c9cac7ff)" style="fill: none; stroke: #2e1e3b"/>
    <path d="M 308.738202 461.38 
L 308.738202 450.7875 
" clip-path="url(#p88c9cac7ff)" style="fill: none; stroke: #2e1e3b"/>
    <path d="M 302.365888 461.38 
L 302.365888 450.7875 
" clip-path="url(#p88c9cac7ff)" style="fill: none; stroke: #2e1e3b"/>
    <path d="M 302.365888 461.38 
L 302.365888 450.7875 
" clip-path="url(#p88c9cac7ff)" style="fill: none; stroke: #2e1e3b"/>
    <path d="M 299.179731 461.38 
L 299.179731 450.7875 
" clip-path="url(#p88c9cac7ff)" style="fill: none; stroke: #2e1e3b"/>
    <path d="M 292.807417 461.38 
L 292.807417 450.7875 
" clip-path="url(#p88c9cac7ff)" style="fill: none; stroke: #2e1e3b"/>
    <path d="M 283.248945 461.38 
L 283.248945 450.7875 
" clip-path="url(#p88c9cac7ff)" style="fill: none; stroke: #2e1e3b"/>
    <path d="M 283.248945 461.38 
L 283.248945 450.7875 
" clip-path="url(#p88c9cac7ff)" style="fill: none; stroke: #2e1e3b"/>
    <path d="M 283.248945 461.38 
L 283.248945 450.7875 
" clip-path="url(#p88c9cac7ff)" style="fill: none; stroke: #2e1e3b"/>
    <path d="M 276.876631 461.38 
L 276.876631 450.7875 
" clip-path="url(#p88c9cac7ff)" style="fill: none; stroke: #2e1e3b"/>
    <path d="M 276.876631 461.38 
L 276.876631 450.7875 
" clip-path="url(#p88c9cac7ff)" style="fill: none; stroke: #2e1e3b"/>
    <path d="M 264.132002 461.38 
L 264.132002 450.7875 
" clip-path="url(#p88c9cac7ff)" style="fill: none; stroke: #2e1e3b"/>
    <path d="M 257.759688 461.38 
L 257.759688 450.7875 
" clip-path="url(#p88c9cac7ff)" style="fill: none; stroke: #2e1e3b"/>
    <path d="M 251.387374 461.38 
L 251.387374 450.7875 
" clip-path="url(#p88c9cac7ff)" style="fill: none; stroke: #2e1e3b"/>
    <path d="M 235.456588 461.38 
L 235.456588 450.7875 
" clip-path="url(#p88c9cac7ff)" style="fill: none; stroke: #2e1e3b"/>
    <path d="M 225.898116 461.38 
L 225.898116 450.7875 
" clip-path="url(#p88c9cac7ff)" style="fill: none; stroke: #2e1e3b"/>
    <path d="M 213.153488 461.38 
L 213.153488 450.7875 
" clip-path="url(#p88c9cac7ff)" style="fill: none; stroke: #2e1e3b"/>
    <path d="M 213.153488 461.38 
L 213.153488 450.7875 
" clip-path="url(#p88c9cac7ff)" style="fill: none; stroke: #2e1e3b"/>
    <path d="M 213.153488 461.38 
L 213.153488 450.7875 
" clip-path="url(#p88c9cac7ff)" style="fill: none; stroke: #2e1e3b"/>
    <path d="M 209.967331 461.38 
L 209.967331 450.7875 
" clip-path="url(#p88c9cac7ff)" style="fill: none; stroke: #2e1e3b"/>
    <path d="M 206.781174 461.38 
L 206.781174 450.7875 
" clip-path="url(#p88c9cac7ff)" style="fill: none; stroke: #2e1e3b"/>
    <path d="M 203.595016 461.38 
L 203.595016 450.7875 
" clip-path="url(#p88c9cac7ff)" style="fill: none; stroke: #2e1e3b"/>
    <path d="M 203.595016 461.38 
L 203.595016 450.7875 
" clip-path="url(#p88c9cac7ff)" style="fill: none; stroke: #2e1e3b"/>
    <path d="M 197.222702 461.38 
L 197.222702 450.7875 
" clip-path="url(#p88c9cac7ff)" style="fill: none; stroke: #2e1e3b"/>
    <path d="M 194.036545 461.38 
L 194.036545 450.7875 
" clip-path="url(#p88c9cac7ff)" style="fill: none; stroke: #2e1e3b"/>
    <path d="M 190.850388 461.38 
L 190.850388 450.7875 
" clip-path="url(#p88c9cac7ff)" style="fill: none; stroke: #2e1e3b"/>
    <path d="M 187.664231 461.38 
L 187.664231 450.7875 
" clip-path="url(#p88c9cac7ff)" style="fill: none; stroke: #2e1e3b"/>
    <path d="M 187.664231 461.38 
L 187.664231 450.7875 
" clip-path="url(#p88c9cac7ff)" style="fill: none; stroke: #2e1e3b"/>
    <path d="M 184.478074 461.38 
L 184.478074 450.7875 
" clip-path="url(#p88c9cac7ff)" style="fill: none; stroke: #2e1e3b"/>
    <path d="M 178.105759 461.38 
L 178.105759 450.7875 
" clip-path="url(#p88c9cac7ff)" style="fill: none; stroke: #2e1e3b"/>
    <path d="M 174.919602 461.38 
L 174.919602 450.7875 
" clip-path="url(#p88c9cac7ff)" style="fill: none; stroke: #2e1e3b"/>
    <path d="M 171.733445 461.38 
L 171.733445 450.7875 
" clip-path="url(#p88c9cac7ff)" style="fill: none; stroke: #2e1e3b"/>
    <path d="M 168.547288 461.38 
L 168.547288 450.7875 
" clip-path="url(#p88c9cac7ff)" style="fill: none; stroke: #2e1e3b"/>
    <path d="M 168.547288 461.38 
L 168.547288 450.7875 
" clip-path="url(#p88c9cac7ff)" style="fill: none; stroke: #2e1e3b"/>
    <path d="M 168.547288 461.38 
L 168.547288 450.7875 
" clip-path="url(#p88c9cac7ff)" style="fill: none; stroke: #2e1e3b"/>
    <path d="M 168.547288 461.38 
L 168.547288 450.7875 
" clip-path="url(#p88c9cac7ff)" style="fill: none; stroke: #2e1e3b"/>
    <path d="M 165.361131 461.38 
L 165.361131 450.7875 
" clip-path="url(#p88c9cac7ff)" style="fill: none; stroke: #2e1e3b"/>
    <path d="M 165.361131 461.38 
L 165.361131 450.7875 
" clip-path="url(#p88c9cac7ff)" style="fill: none; stroke: #2e1e3b"/>
    <path d="M 165.361131 461.38 
L 165.361131 450.7875 
" clip-path="url(#p88c9cac7ff)" style="fill: none; stroke: #2e1e3b"/>
    <path d="M 155.802659 461.38 
L 155.802659 450.7875 
" clip-path="url(#p88c9cac7ff)" style="fill: none; stroke: #2e1e3b"/>
    <path d="M 155.802659 461.38 
L 155.802659 450.7875 
" clip-path="url(#p88c9cac7ff)" style="fill: none; stroke: #2e1e3b"/>
    <path d="M 155.802659 461.38 
L 155.802659 450.7875 
" clip-path="url(#p88c9cac7ff)" style="fill: none; stroke: #2e1e3b"/>
    <path d="M 155.802659 461.38 
L 155.802659 450.7875 
" clip-path="url(#p88c9cac7ff)" style="fill: none; stroke: #2e1e3b"/>
    <path d="M 155.802659 461.38 
L 155.802659 450.7875 
" clip-path="url(#p88c9cac7ff)" style="fill: none; stroke: #2e1e3b"/>
    <path d="M 149.430345 461.38 
L 149.430345 450.7875 
" clip-path="url(#p88c9cac7ff)" style="fill: none; stroke: #2e1e3b"/>
    <path d="M 139.871873 461.38 
L 139.871873 450.7875 
" clip-path="url(#p88c9cac7ff)" style="fill: none; stroke: #2e1e3b"/>
    <path d="M 136.685716 461.38 
L 136.685716 450.7875 
" clip-path="url(#p88c9cac7ff)" style="fill: none; stroke: #2e1e3b"/>
    <path d="M 123.941088 461.38 
L 123.941088 450.7875 
" clip-path="url(#p88c9cac7ff)" style="fill: none; stroke: #2e1e3b"/>
    <path d="M 117.568773 461.38 
L 117.568773 450.7875 
" clip-path="url(#p88c9cac7ff)" style="fill: none; stroke: #2e1e3b"/>
    <path d="M 117.568773 461.38 
L 117.568773 450.7875 
" clip-path="url(#p88c9cac7ff)" style="fill: none; stroke: #2e1e3b"/>
    <path d="M 108.010302 461.38 
L 108.010302 450.7875 
" clip-path="url(#p88c9cac7ff)" style="fill: none; stroke: #2e1e3b"/>
    <path d="M 108.010302 461.38 
L 108.010302 450.7875 
" clip-path="url(#p88c9cac7ff)" style="fill: none; stroke: #2e1e3b"/>
    <path d="M 108.010302 461.38 
L 108.010302 450.7875 
" clip-path="url(#p88c9cac7ff)" style="fill: none; stroke: #2e1e3b"/>
    <path d="M 104.824145 461.38 
L 104.824145 450.7875 
" clip-path="url(#p88c9cac7ff)" style="fill: none; stroke: #2e1e3b"/>
    <path d="M 101.637988 461.38 
L 101.637988 450.7875 
" clip-path="url(#p88c9cac7ff)" style="fill: none; stroke: #2e1e3b"/>
    <path d="M 98.451831 461.38 
L 98.451831 450.7875 
" clip-path="url(#p88c9cac7ff)" style="fill: none; stroke: #2e1e3b"/>
    <path d="M 295.993574 461.38 
L 295.993574 450.7875 
" clip-path="url(#p88c9cac7ff)" style="fill: none; stroke: #2e1e3b"/>
    <path d="M 662.401646 461.38 
L 662.401646 450.7875 
" clip-path="url(#p88c9cac7ff)" style="fill: none; stroke: #2e1e3b"/>
    <path d="M 187.664231 461.38 
L 187.664231 450.7875 
" clip-path="url(#p88c9cac7ff)" style="fill: none; stroke: #2e1e3b"/>
    <path d="M 213.153488 461.38 
L 213.153488 450.7875 
" clip-path="url(#p88c9cac7ff)" style="fill: none; stroke: #2e1e3b"/>
    <path d="M 133.499559 461.38 
L 133.499559 450.7875 
" clip-path="url(#p88c9cac7ff)" style="fill: none; stroke: #2e1e3b"/>
    <path d="M 158.988816 461.38 
L 158.988816 450.7875 
" clip-path="url(#p88c9cac7ff)" style="fill: none; stroke: #2e1e3b"/>
    <path d="M 213.153488 461.38 
L 213.153488 450.7875 
" clip-path="url(#p88c9cac7ff)" style="fill: none; stroke: #2e1e3b"/>
    <path d="M 315.110517 461.38 
L 315.110517 450.7875 
" clip-path="url(#p88c9cac7ff)" style="fill: none; stroke: #2e1e3b"/>
    <path d="M 187.664231 461.38 
L 187.664231 450.7875 
" clip-path="url(#p88c9cac7ff)" style="fill: none; stroke: #2e1e3b"/>
    <path d="M 276.876631 461.38 
L 276.876631 450.7875 
" clip-path="url(#p88c9cac7ff)" style="fill: none; stroke: #2e1e3b"/>
    <path d="M 474.418374 461.38 
L 474.418374 450.7875 
" clip-path="url(#p88c9cac7ff)" style="fill: none; stroke: #2e1e3b"/>
    <path d="M 136.685716 461.38 
L 136.685716 450.7875 
" clip-path="url(#p88c9cac7ff)" style="fill: none; stroke: #2e1e3b"/>
    <path d="M 952.341946 461.38 
L 952.341946 450.7875 
" clip-path="url(#p88c9cac7ff)" style="fill: none; stroke: #2e1e3b"/>
    <path d="M 117.568773 461.38 
L 117.568773 450.7875 
" clip-path="url(#p88c9cac7ff)" style="fill: none; stroke: #2e1e3b"/>
    <path d="M 120.754931 461.38 
L 120.754931 450.7875 
" clip-path="url(#p88c9cac7ff)" style="fill: none; stroke: #2e1e3b"/>
    <path d="M 123.941088 461.38 
L 123.941088 450.7875 
" clip-path="url(#p88c9cac7ff)" style="fill: none; stroke: #2e1e3b"/>
    <path d="M 181.291916 461.38 
L 181.291916 450.7875 
" clip-path="url(#p88c9cac7ff)" style="fill: none; stroke: #2e1e3b"/>
    <path d="M 474.418374 461.38 
L 474.418374 450.7875 
" clip-path="url(#p88c9cac7ff)" style="fill: none; stroke: #2e1e3b"/>
    <path d="M 158.988816 461.38 
L 158.988816 450.7875 
" clip-path="url(#p88c9cac7ff)" style="fill: none; stroke: #2e1e3b"/>
    <path d="M 289.621259 461.38 
L 289.621259 450.7875 
" clip-path="url(#p88c9cac7ff)" style="fill: none; stroke: #2e1e3b"/>
    <path d="M 130.313402 461.38 
L 130.313402 450.7875 
" clip-path="url(#p88c9cac7ff)" style="fill: none; stroke: #2e1e3b"/>
    <path d="M 155.802659 461.38 
L 155.802659 450.7875 
" clip-path="url(#p88c9cac7ff)" style="fill: none; stroke: #2e1e3b"/>
    <path d="M 155.802659 461.38 
L 155.802659 450.7875 
" clip-path="url(#p88c9cac7ff)" style="fill: none; stroke: #2e1e3b"/>
    <path d="M 149.430345 461.38 
L 149.430345 450.7875 
" clip-path="url(#p88c9cac7ff)" style="fill: none; stroke: #2e1e3b"/>
    <path d="M 213.153488 461.38 
L 213.153488 450.7875 
" clip-path="url(#p88c9cac7ff)" style="fill: none; stroke: #2e1e3b"/>
    <path d="M 748.427889 461.38 
L 748.427889 450.7875 
" clip-path="url(#p88c9cac7ff)" style="fill: none; stroke: #2e1e3b"/>
    <path d="M 158.988816 461.38 
L 158.988816 450.7875 
" clip-path="url(#p88c9cac7ff)" style="fill: none; stroke: #2e1e3b"/>
    <path d="M 187.664231 461.38 
L 187.664231 450.7875 
" clip-path="url(#p88c9cac7ff)" style="fill: none; stroke: #2e1e3b"/>
    <path d="M 280.062788 461.38 
L 280.062788 450.7875 
" clip-path="url(#p88c9cac7ff)" style="fill: none; stroke: #2e1e3b"/>
    <path d="M 378.83366 461.38 
L 378.83366 450.7875 
" clip-path="url(#p88c9cac7ff)" style="fill: none; stroke: #2e1e3b"/>
    <path d="M 143.058031 461.38 
L 143.058031 450.7875 
" clip-path="url(#p88c9cac7ff)" style="fill: none; stroke: #2e1e3b"/>
    <path d="M 267.318159 461.38 
L 267.318159 450.7875 
" clip-path="url(#p88c9cac7ff)" style="fill: none; stroke: #2e1e3b"/>
    <path d="M 264.132002 461.38 
L 264.132002 450.7875 
" clip-path="url(#p88c9cac7ff)" style="fill: none; stroke: #2e1e3b"/>
    <path d="M 509.466103 461.38 
L 509.466103 450.7875 
" clip-path="url(#p88c9cac7ff)" style="fill: none; stroke: #2e1e3b"/>
   </g>
   <g id="patch_43">
    <path d="M 52.571168 461.38 
L 52.571168 37.68 
" style="fill: none; stroke: #cccccc; stroke-width: 1.25; stroke-linejoin: miter; stroke-linecap: square"/>
   </g>
   <g id="patch_44">
    <path d="M 52.571168 461.38 
L 1061.945752 461.38 
" style="fill: none; stroke: #cccccc; stroke-width: 1.25; stroke-linejoin: miter; stroke-linecap: square"/>
   </g>
   <g id="text_17">
    <!-- Num. of users who tested the app -->
    <g style="fill: #262626" transform="translate(362.888147 31.68) scale(0.26 -0.26)">
     <defs>
      <path id="ArialMT-4e" d="M 488 0 
L 488 4581 
L 1109 4581 
L 3516 984 
L 3516 4581 
L 4097 4581 
L 4097 0 
L 3475 0 
L 1069 3600 
L 1069 0 
L 488 0 
z
" transform="scale(0.015625)"/>
      <path id="ArialMT-75" d="M 2597 0 
L 2597 488 
Q 2209 -75 1544 -75 
Q 1250 -75 995 37 
Q 741 150 617 320 
Q 494 491 444 738 
Q 409 903 409 1263 
L 409 3319 
L 972 3319 
L 972 1478 
Q 972 1038 1006 884 
Q 1059 663 1231 536 
Q 1403 409 1656 409 
Q 1909 409 2131 539 
Q 2353 669 2445 892 
Q 2538 1116 2538 1541 
L 2538 3319 
L 3100 3319 
L 3100 0 
L 2597 0 
z
" transform="scale(0.015625)"/>
      <path id="ArialMT-6d" d="M 422 0 
L 422 3319 
L 925 3319 
L 925 2853 
Q 1081 3097 1340 3245 
Q 1600 3394 1931 3394 
Q 2300 3394 2536 3241 
Q 2772 3088 2869 2813 
Q 3263 3394 3894 3394 
Q 4388 3394 4653 3120 
Q 4919 2847 4919 2278 
L 4919 0 
L 4359 0 
L 4359 2091 
Q 4359 2428 4304 2576 
Q 4250 2725 4106 2815 
Q 3963 2906 3769 2906 
Q 3419 2906 3187 2673 
Q 2956 2441 2956 1928 
L 2956 0 
L 2394 0 
L 2394 2156 
Q 2394 2531 2256 2718 
Q 2119 2906 1806 2906 
Q 1569 2906 1367 2781 
Q 1166 2656 1075 2415 
Q 984 2175 984 1722 
L 984 0 
L 422 0 
z
" transform="scale(0.015625)"/>
      <path id="ArialMT-2e" d="M 581 0 
L 581 641 
L 1222 641 
L 1222 0 
L 581 0 
z
" transform="scale(0.015625)"/>
      <path id="ArialMT-20" transform="scale(0.015625)"/>
      <path id="ArialMT-6f" d="M 213 1659 
Q 213 2581 725 3025 
Q 1153 3394 1769 3394 
Q 2453 3394 2887 2945 
Q 3322 2497 3322 1706 
Q 3322 1066 3130 698 
Q 2938 331 2570 128 
Q 2203 -75 1769 -75 
Q 1072 -75 642 372 
Q 213 819 213 1659 
z
M 791 1659 
Q 791 1022 1069 705 
Q 1347 388 1769 388 
Q 2188 388 2466 706 
Q 2744 1025 2744 1678 
Q 2744 2294 2464 2611 
Q 2184 2928 1769 2928 
Q 1347 2928 1069 2612 
Q 791 2297 791 1659 
z
" transform="scale(0.015625)"/>
      <path id="ArialMT-66" d="M 556 0 
L 556 2881 
L 59 2881 
L 59 3319 
L 556 3319 
L 556 3672 
Q 556 4006 616 4169 
Q 697 4388 901 4523 
Q 1106 4659 1475 4659 
Q 1713 4659 2000 4603 
L 1916 4113 
Q 1741 4144 1584 4144 
Q 1328 4144 1222 4034 
Q 1116 3925 1116 3625 
L 1116 3319 
L 1763 3319 
L 1763 2881 
L 1116 2881 
L 1116 0 
L 556 0 
z
" transform="scale(0.015625)"/>
      <path id="ArialMT-73" d="M 197 991 
L 753 1078 
Q 800 744 1014 566 
Q 1228 388 1613 388 
Q 2000 388 2187 545 
Q 2375 703 2375 916 
Q 2375 1106 2209 1216 
Q 2094 1291 1634 1406 
Q 1016 1563 777 1677 
Q 538 1791 414 1992 
Q 291 2194 291 2438 
Q 291 2659 392 2848 
Q 494 3038 669 3163 
Q 800 3259 1026 3326 
Q 1253 3394 1513 3394 
Q 1903 3394 2198 3281 
Q 2494 3169 2634 2976 
Q 2775 2784 2828 2463 
L 2278 2388 
Q 2241 2644 2061 2787 
Q 1881 2931 1553 2931 
Q 1166 2931 1000 2803 
Q 834 2675 834 2503 
Q 834 2394 903 2306 
Q 972 2216 1119 2156 
Q 1203 2125 1616 2013 
Q 2213 1853 2448 1751 
Q 2684 1650 2818 1456 
Q 2953 1263 2953 975 
Q 2953 694 2789 445 
Q 2625 197 2315 61 
Q 2006 -75 1616 -75 
Q 969 -75 630 194 
Q 291 463 197 991 
z
" transform="scale(0.015625)"/>
      <path id="ArialMT-65" d="M 2694 1069 
L 3275 997 
Q 3138 488 2766 206 
Q 2394 -75 1816 -75 
Q 1088 -75 661 373 
Q 234 822 234 1631 
Q 234 2469 665 2931 
Q 1097 3394 1784 3394 
Q 2450 3394 2872 2941 
Q 3294 2488 3294 1666 
Q 3294 1616 3291 1516 
L 816 1516 
Q 847 969 1125 678 
Q 1403 388 1819 388 
Q 2128 388 2347 550 
Q 2566 713 2694 1069 
z
M 847 1978 
L 2700 1978 
Q 2663 2397 2488 2606 
Q 2219 2931 1791 2931 
Q 1403 2931 1139 2672 
Q 875 2413 847 1978 
z
" transform="scale(0.015625)"/>
      <path id="ArialMT-72" d="M 416 0 
L 416 3319 
L 922 3319 
L 922 2816 
Q 1116 3169 1280 3281 
Q 1444 3394 1641 3394 
Q 1925 3394 2219 3213 
L 2025 2691 
Q 1819 2813 1613 2813 
Q 1428 2813 1281 2702 
Q 1134 2591 1072 2394 
Q 978 2094 978 1738 
L 978 0 
L 416 0 
z
" transform="scale(0.015625)"/>
      <path id="ArialMT-77" d="M 1034 0 
L 19 3319 
L 600 3319 
L 1128 1403 
L 1325 691 
Q 1338 744 1497 1375 
L 2025 3319 
L 2603 3319 
L 3100 1394 
L 3266 759 
L 3456 1400 
L 4025 3319 
L 4572 3319 
L 3534 0 
L 2950 0 
L 2422 1988 
L 2294 2553 
L 1622 0 
L 1034 0 
z
" transform="scale(0.015625)"/>
      <path id="ArialMT-68" d="M 422 0 
L 422 4581 
L 984 4581 
L 984 2938 
Q 1378 3394 1978 3394 
Q 2347 3394 2619 3248 
Q 2891 3103 3008 2847 
Q 3125 2591 3125 2103 
L 3125 0 
L 2563 0 
L 2563 2103 
Q 2563 2525 2380 2717 
Q 2197 2909 1863 2909 
Q 1613 2909 1392 2779 
Q 1172 2650 1078 2428 
Q 984 2206 984 1816 
L 984 0 
L 422 0 
z
" transform="scale(0.015625)"/>
      <path id="ArialMT-74" d="M 1650 503 
L 1731 6 
Q 1494 -44 1306 -44 
Q 1000 -44 831 53 
Q 663 150 594 308 
Q 525 466 525 972 
L 525 2881 
L 113 2881 
L 113 3319 
L 525 3319 
L 525 4141 
L 1084 4478 
L 1084 3319 
L 1650 3319 
L 1650 2881 
L 1084 2881 
L 1084 941 
Q 1084 700 1114 631 
Q 1144 563 1211 522 
Q 1278 481 1403 481 
Q 1497 481 1650 503 
z
" transform="scale(0.015625)"/>
      <path id="ArialMT-64" d="M 2575 0 
L 2575 419 
Q 2259 -75 1647 -75 
Q 1250 -75 917 144 
Q 584 363 401 755 
Q 219 1147 219 1656 
Q 219 2153 384 2558 
Q 550 2963 881 3178 
Q 1213 3394 1622 3394 
Q 1922 3394 2156 3267 
Q 2391 3141 2538 2938 
L 2538 4581 
L 3097 4581 
L 3097 0 
L 2575 0 
z
M 797 1656 
Q 797 1019 1065 703 
Q 1334 388 1700 388 
Q 2069 388 2326 689 
Q 2584 991 2584 1609 
Q 2584 2291 2321 2609 
Q 2059 2928 1675 2928 
Q 1300 2928 1048 2622 
Q 797 2316 797 1656 
z
" transform="scale(0.015625)"/>
      <path id="ArialMT-61" d="M 2588 409 
Q 2275 144 1986 34 
Q 1697 -75 1366 -75 
Q 819 -75 525 192 
Q 231 459 231 875 
Q 231 1119 342 1320 
Q 453 1522 633 1644 
Q 813 1766 1038 1828 
Q 1203 1872 1538 1913 
Q 2219 1994 2541 2106 
Q 2544 2222 2544 2253 
Q 2544 2597 2384 2738 
Q 2169 2928 1744 2928 
Q 1347 2928 1158 2789 
Q 969 2650 878 2297 
L 328 2372 
Q 403 2725 575 2942 
Q 747 3159 1072 3276 
Q 1397 3394 1825 3394 
Q 2250 3394 2515 3294 
Q 2781 3194 2906 3042 
Q 3031 2891 3081 2659 
Q 3109 2516 3109 2141 
L 3109 1391 
Q 3109 606 3145 398 
Q 3181 191 3288 0 
L 2700 0 
Q 2613 175 2588 409 
z
M 2541 1666 
Q 2234 1541 1622 1453 
Q 1275 1403 1131 1340 
Q 988 1278 909 1158 
Q 831 1038 831 891 
Q 831 666 1001 516 
Q 1172 366 1500 366 
Q 1825 366 2078 508 
Q 2331 650 2450 897 
Q 2541 1088 2541 1459 
L 2541 1666 
z
" transform="scale(0.015625)"/>
      <path id="ArialMT-70" d="M 422 -1272 
L 422 3319 
L 934 3319 
L 934 2888 
Q 1116 3141 1344 3267 
Q 1572 3394 1897 3394 
Q 2322 3394 2647 3175 
Q 2972 2956 3137 2557 
Q 3303 2159 3303 1684 
Q 3303 1175 3120 767 
Q 2938 359 2589 142 
Q 2241 -75 1856 -75 
Q 1575 -75 1351 44 
Q 1128 163 984 344 
L 984 -1272 
L 422 -1272 
z
M 931 1641 
Q 931 1000 1190 694 
Q 1450 388 1819 388 
Q 2194 388 2461 705 
Q 2728 1022 2728 1688 
Q 2728 2322 2467 2637 
Q 2206 2953 1844 2953 
Q 1484 2953 1207 2617 
Q 931 2281 931 1641 
z
" transform="scale(0.015625)"/>
     </defs>
     <use xlink:href="#ArialMT-4e"/>
     <use xlink:href="#ArialMT-75" x="72.216797"/>
     <use xlink:href="#ArialMT-6d" x="127.832031"/>
     <use xlink:href="#ArialMT-2e" x="211.132812"/>
     <use xlink:href="#ArialMT-20" x="238.916016"/>
     <use xlink:href="#ArialMT-6f" x="266.699219"/>
     <use xlink:href="#ArialMT-66" x="322.314453"/>
     <use xlink:href="#ArialMT-20" x="350.097656"/>
     <use xlink:href="#ArialMT-75" x="377.880859"/>
     <use xlink:href="#ArialMT-73" x="433.496094"/>
     <use xlink:href="#ArialMT-65" x="483.496094"/>
     <use xlink:href="#ArialMT-72" x="539.111328"/>
     <use xlink:href="#ArialMT-73" x="572.412109"/>
     <use xlink:href="#ArialMT-20" x="622.412109"/>
     <use xlink:href="#ArialMT-77" x="650.195312"/>
     <use xlink:href="#ArialMT-68" x="722.412109"/>
     <use xlink:href="#ArialMT-6f" x="778.027344"/>
     <use xlink:href="#ArialMT-20" x="833.642578"/>
     <use xlink:href="#ArialMT-74" x="861.425781"/>
     <use xlink:href="#ArialMT-65" x="889.208984"/>
     <use xlink:href="#ArialMT-73" x="944.824219"/>
     <use xlink:href="#ArialMT-74" x="994.824219"/>
     <use xlink:href="#ArialMT-65" x="1022.607422"/>
     <use xlink:href="#ArialMT-64" x="1078.222656"/>
     <use xlink:href="#ArialMT-20" x="1133.837891"/>
     <use xlink:href="#ArialMT-74" x="1161.621094"/>
     <use xlink:href="#ArialMT-68" x="1189.404297"/>
     <use xlink:href="#ArialMT-65" x="1245.019531"/>
     <use xlink:href="#ArialMT-20" x="1300.634766"/>
     <use xlink:href="#ArialMT-61" x="1328.417969"/>
     <use xlink:href="#ArialMT-70" x="1384.033203"/>
     <use xlink:href="#ArialMT-70" x="1439.648438"/>
    </g>
   </g>
  </g>
 </g>
 <defs>
  <clipPath id="p88c9cac7ff">
   <rect x="52.571168" y="37.68" width="1009.374585" height="423.7"/>
  </clipPath>
 </defs>
</svg>
